# Blender 4.2.3 LTS
# www.blender.org
o Plane.001
v 19.255005 1.386711 -19.255005
v -19.582260 1.059456 -19.582260
v 19.519644 1.122070 19.519644
v -19.673973 0.967741 19.673973
v 20.007458 2.000393 -20.007458
v -19.662197 1.655133 -19.662197
v 19.448664 1.441600 19.448664
v -19.482201 1.475136 19.482201
vn 0.0039 -1.0000 -0.0069
vn -0.0086 0.9999 0.0140
vn 0.6308 -0.7760 -0.0021
vn 0.0095 -0.1318 -0.9912
vn -0.9356 0.3531 -0.0014
vn 0.0010 0.2171 0.9762
vn 0.0084 -1.0000 -0.0023
vn 0.0009 1.0000 0.0046
vn 0.9764 0.2158 -0.0052
vn 0.0013 -0.7756 -0.6313
vn -0.9912 -0.1325 0.0039
vn 0.0023 0.3528 0.9357
vt 0.001218 0.160551
vt 0.498782 0.499171
vt 0.001218 0.499171
vt 0.498782 0.839449
vt 0.001218 0.500829
vt 0.498782 0.500829
vt 0.501218 0.391001
vt 0.510357 0.160551
vt 0.510357 0.391001
vt 0.501218 0.392658
vt 0.510357 0.623108
vt 0.501218 0.623108
vt 0.512792 0.160551
vt 0.521931 0.391001
vt 0.512792 0.391001
vt 0.512792 0.623108
vt 0.521931 0.392658
vt 0.521931 0.623108
vt 0.498782 0.160551
vt 0.001218 0.839449
vt 0.501218 0.160551
vt 0.510357 0.392658
vt 0.521931 0.160551
vt 0.512792 0.392658
s 0
f 1/1/1 3/3/1 4/2/1
f 7/4/2 5/6/2 6/5/2
f 1/7/3 5/9/3 7/8/3
f 1/10/4 2/12/4 6/11/4
f 2/13/5 4/15/5 8/14/5
f 3/16/6 7/18/6 8/17/6
f 1/1/7 4/2/7 2/19/7
f 7/4/8 6/5/8 8/20/8
f 1/7/9 7/8/9 3/21/9
f 1/10/10 6/11/10 5/22/10
f 2/13/11 8/14/11 6/23/11
f 3/16/12 8/17/12 4/24/12
