# Blender 4.2.3 LTS
# www.blender.org
o floor.001
v -308.447998 -0.030703 -597.447998
v -308.447998 0.030703 -597.447998
v -308.447998 -0.030703 597.447998
v -308.447998 0.030703 597.447998
v 308.447998 -0.030703 -597.447998
v 308.447998 0.030703 -597.447998
v 308.447998 -0.030703 597.447998
v 308.447998 0.030703 597.447998
vn -1.0000 -0.0000 -0.0000
vn -0.0000 -0.0000 1.0000
vn 1.0000 -0.0000 -0.0000
vn -0.0000 -0.0000 -1.0000
vn -0.0000 -1.0000 -0.0000
vn -0.0000 1.0000 -0.0000
vt 0.001976 0.331357
vt 0.331357 0.001976
vt 0.331357 0.331357
vt 0.001976 0.664690
vt 0.331357 0.335310
vt 0.331357 0.664690
vt 0.335310 0.331357
vt 0.664690 0.001976
vt 0.664690 0.331357
vt 0.335310 0.664690
vt 0.664690 0.335310
vt 0.664690 0.664690
vt 0.331357 0.998024
vt 0.001976 0.668643
vt 0.331357 0.668643
vt 0.664690 0.998024
vt 0.335310 0.668643
vt 0.664690 0.668643
vt 0.001976 0.001976
vt 0.001976 0.335310
vt 0.335310 0.001976
vt 0.335310 0.335310
vt 0.001976 0.998024
vt 0.335310 0.998024
s 0
f 2/1/1 1/3/1 3/2/1
f 4/4/2 3/6/2 7/5/2
f 8/7/3 7/9/3 5/8/3
f 6/10/4 5/12/4 1/11/4
f 7/13/5 3/15/5 1/14/5
f 4/16/6 8/18/6 6/17/6
f 2/1/1 3/2/1 4/19/1
f 4/4/2 7/5/2 8/20/2
f 8/7/3 5/8/3 6/21/3
f 6/10/4 1/11/4 2/22/4
f 7/13/5 1/14/5 5/23/5
f 4/16/6 6/17/6 2/24/6
