# Blender 4.2.3 LTS
# www.blender.org
o LIGHT
v 0.080556 2.749430 -0.080556
v 0.080556 -2.749430 -0.080556
v 0.080556 2.749430 0.080556
v 0.080556 -2.749430 0.080556
v -0.080556 2.749430 -0.080556
v -0.080556 -2.749430 -0.080556
v -0.080556 2.749430 0.080556
v -0.080556 -2.749430 0.080556
v -0.883361 -4.106899 0.883361
v -0.883361 -2.340177 0.883361
v -0.883361 -4.106899 -0.883361
v -0.883361 -2.340178 -0.883361
v 0.883361 -4.106899 0.883361
v 0.883361 -2.340178 0.883361
v 0.883361 -4.106899 -0.883361
v 0.883361 -2.340178 -0.883361
v -0.985384 -4.300475 -0.000000
v -1.076937 -3.223538 1.076937
v -0.927603 -2.146601 0.000000
v -1.076937 -3.223538 -1.076937
v 0.000000 -4.300475 -1.076937
v -0.000000 -2.244432 -0.935353
v 1.076937 -3.223538 -1.076937
v 0.985384 -4.300475 0.000000
v 0.927603 -2.146601 0.000000
v 1.076937 -3.223538 1.076937
v -0.000000 -4.300475 1.076937
v -0.000000 -2.244432 0.935353
v -1.229953 -3.223538 0.000000
v 0.000000 -3.223538 -1.283646
v 1.229953 -3.223538 0.000000
v -0.000000 -3.223538 1.283646
v 0.000000 -4.560630 0.000000
v -0.000000 -2.062698 0.000000
v -1.000000 -2.164021 1.000000
v -1.000000 -1.886296 1.000000
v -1.000000 -2.164021 -1.000000
v -1.000000 -1.886296 -1.000000
v 1.000000 -2.164021 1.000000
v 1.000000 -1.886296 1.000000
v 1.000000 -2.164021 -1.000000
v 1.000000 -1.886296 -1.000000
vn -0.0000 1.0000 -0.0000
vn -0.0000 -0.0000 1.0000
vn -1.0000 -0.0000 -0.0000
vn -0.0000 -1.0000 -0.0000
vn 1.0000 -0.0000 -0.0000
vn -0.0000 -0.0000 -1.0000
vn -0.9627 -0.2186 0.1591
vn -0.9610 0.2405 0.1365
vn -0.9610 0.2405 -0.1365
vn -0.9627 -0.2186 -0.1591
vn -0.2485 -0.1826 -0.9513
vn -0.1826 0.2485 -0.9513
vn 0.1826 0.2485 -0.9513
vn 0.2485 -0.1826 -0.9513
vn 0.9627 -0.2186 -0.1591
vn 0.9610 0.2405 -0.1365
vn 0.9610 0.2405 0.1365
vn 0.9627 -0.2186 0.1591
vn 0.2485 -0.1826 0.9513
vn 0.1826 0.2485 0.9513
vn -0.1826 0.2485 0.9513
vn -0.2485 -0.1826 0.9513
vn -0.2481 -0.9399 -0.2346
vn 0.2557 -0.9397 -0.2270
vn 0.2557 -0.9397 0.2270
vn -0.2481 -0.9399 0.2346
vn 0.0879 0.9721 -0.2174
vn -0.1168 0.9749 -0.1894
vn -0.1168 0.9749 0.1894
vn 0.0879 0.9721 0.2174
vn -0.9610 -0.2405 0.1365
vn -0.9573 0.2688 0.1068
vn -0.9573 0.2688 -0.1068
vn -0.9610 -0.2405 -0.1365
vn -0.1826 -0.2485 -0.9513
vn -0.0914 0.3337 -0.9382
vn 0.0914 0.3337 -0.9382
vn 0.1826 -0.2485 -0.9513
vn 0.9610 -0.2405 -0.1365
vn 0.9573 0.2688 -0.1068
vn 0.9573 0.2688 0.1068
vn 0.9610 -0.2405 0.1365
vn 0.1826 -0.2485 0.9513
vn 0.0914 0.3337 0.9382
vn -0.0914 0.3337 0.9382
vn -0.1826 -0.2485 0.9513
vn -0.2557 -0.9397 -0.2270
vn 0.2481 -0.9399 -0.2346
vn 0.2481 -0.9399 0.2346
vn -0.2557 -0.9397 0.2270
vn 0.1168 0.9749 -0.1894
vn -0.0879 0.9721 -0.2174
vn -0.0879 0.9721 0.2174
vn 0.1168 0.9749 0.1894
vt 0.881297 0.556564
vt 0.848502 0.523769
vt 0.881297 0.523769
vt 0.848502 0.593614
vt 0.881297 0.560819
vt 0.881297 0.593614
vt 0.848502 0.630664
vt 0.881297 0.597870
vt 0.881297 0.630664
vt 0.881297 0.667715
vt 0.848502 0.634920
vt 0.881297 0.634920
vt 0.848502 0.704765
vt 0.881297 0.671970
vt 0.881297 0.704765
vt 0.848502 0.741816
vt 0.881297 0.709021
vt 0.881297 0.741816
vt 0.453318 0.108092
vt 0.497872 0.296040
vt 0.448584 0.289037
vt 0.597271 0.057503
vt 0.502128 0.225602
vt 0.563803 0.012948
vt 0.546682 0.413550
vt 0.502128 0.447018
vt 0.402729 0.464139
vt 0.213244 0.519514
vt 0.219163 0.477855
vt 0.713244 0.519514
vt 0.902729 0.464139
vt 0.936197 0.508693
vt 0.046682 0.413550
vt 0.002128 0.225602
vt 0.051416 0.232605
vt 0.997872 0.296040
vt 0.953318 0.108092
vt 0.997872 0.074623
vt 0.097271 0.057503
vt 0.286756 0.002128
vt 0.280837 0.043786
vt 0.786756 0.002128
vt 0.250000 0.260821
vt 0.750000 0.260821
vt 0.936940 0.287382
vt 0.723217 0.449322
vt 0.776783 0.072319
vt 0.824854 0.930877
vt 0.826511 0.523769
vt 0.826511 0.930877
vt 0.830766 0.930877
vt 0.832423 0.523769
vt 0.832423 0.930877
vt 0.836678 0.930877
vt 0.838335 0.523769
vt 0.838335 0.930877
vt 0.842590 0.930877
vt 0.844246 0.523769
vt 0.844246 0.930877
vt 0.409236 0.930877
vt 0.002128 0.523769
vt 0.409236 0.523769
vt 0.820599 0.930877
vt 0.413491 0.523769
vt 0.820599 0.523769
vt 0.848502 0.556564
vt 0.848502 0.560819
vt 0.848502 0.597870
vt 0.848502 0.667715
vt 0.848502 0.671970
vt 0.848502 0.709021
vt 0.497872 0.074623
vt 0.563060 0.234259
vt 0.436197 0.508693
vt 0.002128 0.447018
vt 0.063803 0.012948
vt 0.824854 0.523769
vt 0.830766 0.523769
vt 0.836678 0.523769
vt 0.842590 0.523769
vt 0.002128 0.930877
vt 0.413491 0.930877
s 0
f 5/1/1 3/2/1 1/3/1
f 3/4/2 8/5/2 4/6/2
f 7/7/3 6/8/3 8/9/3
f 2/10/4 8/11/4 6/12/4
f 1/13/5 4/14/5 2/15/5
f 5/16/6 2/17/6 6/18/6
f 9/19/7 29/20/7 17/21/7
f 10/22/8 29/23/8 18/24/8
f 29/23/9 12/25/9 20/26/9
f 29/20/10 11/27/10 17/21/10
f 11/27/11 30/28/11 21/29/11
f 12/25/12 30/30/12 20/26/12
f 30/30/13 16/31/13 23/32/13
f 30/28/14 15/33/14 21/29/14
f 15/33/15 31/34/15 24/35/15
f 16/31/16 31/36/16 23/32/16
f 31/36/17 14/37/17 26/38/17
f 31/34/18 13/39/18 24/35/18
f 13/39/19 32/40/19 27/41/19
f 14/37/20 32/42/20 26/38/20
f 32/42/21 10/22/21 18/24/21
f 32/40/22 9/19/22 27/41/22
f 11/27/23 33/43/23 17/21/23
f 15/33/24 33/43/24 21/29/24
f 33/43/25 13/39/25 27/41/25
f 33/43/26 9/19/26 17/21/26
f 16/31/27 34/44/27 25/45/27
f 12/25/28 34/44/28 22/46/28
f 34/44/29 10/22/29 28/47/29
f 34/44/30 14/37/30 25/45/30
f 36/48/3 37/49/3 35/50/3
f 38/51/6 41/52/6 37/53/6
f 42/54/5 39/55/5 41/56/5
f 40/57/2 35/58/2 39/59/2
f 41/60/4 35/61/4 37/62/4
f 38/63/1 40/64/1 42/65/1
f 5/1/1 7/66/1 3/2/1
f 3/4/2 7/67/2 8/5/2
f 7/7/3 5/68/3 6/8/3
f 2/10/4 4/69/4 8/11/4
f 1/13/5 3/70/5 4/14/5
f 5/16/6 1/71/6 2/17/6
f 9/19/31 18/72/31 29/20/31
f 10/22/32 19/73/32 29/23/32
f 29/23/33 19/73/33 12/25/33
f 29/20/34 20/74/34 11/27/34
f 11/27/35 20/74/35 30/28/35
f 12/25/36 22/46/36 30/30/36
f 30/30/37 22/46/37 16/31/37
f 30/28/38 23/75/38 15/33/38
f 15/33/39 23/75/39 31/34/39
f 16/31/40 25/45/40 31/36/40
f 31/36/41 25/45/41 14/37/41
f 31/34/42 26/76/42 13/39/42
f 13/39/43 26/76/43 32/40/43
f 14/37/44 28/47/44 32/42/44
f 32/42/45 28/47/45 10/22/45
f 32/40/46 18/72/46 9/19/46
f 11/27/47 21/29/47 33/43/47
f 15/33/48 24/35/48 33/43/48
f 33/43/49 24/35/49 13/39/49
f 33/43/50 27/41/50 9/19/50
f 16/31/51 22/46/51 34/44/51
f 12/25/52 19/73/52 34/44/52
f 34/44/53 19/73/53 10/22/53
f 34/44/54 28/47/54 14/37/54
f 36/48/3 38/77/3 37/49/3
f 38/51/6 42/78/6 41/52/6
f 42/54/5 40/79/5 39/55/5
f 40/57/2 36/80/2 35/58/2
f 41/60/4 39/81/4 35/61/4
f 38/63/1 36/82/1 40/64/1
